<svg id="visual" viewBox="0 0 1080 720" width="1080" height="720" xmlns="http://www.w3.org/2000/svg" xmlns:xlink="http://www.w3.org/1999/xlink" version="1.1"><rect x="0" y="0" width="1080" height="720" fill="#258730"></rect><defs><linearGradient id="grad1_0" x1="33.3%" y1="0%" x2="100%" y2="100%"><stop offset="20%" stop-color="#258730" stop-opacity="1"></stop><stop offset="80%" stop-color="#258730" stop-opacity="1"></stop></linearGradient></defs><defs><linearGradient id="grad2_0" x1="0%" y1="0%" x2="66.7%" y2="100%"><stop offset="20%" stop-color="#258730" stop-opacity="1"></stop><stop offset="80%" stop-color="#258730" stop-opacity="1"></stop></linearGradient></defs><g transform="translate(1080, 0)"><path d="M0 389.4C-74.5 382.9 -149 376.4 -194.7 337.2C-240.4 298 -257.3 226.2 -284.9 164.5C-312.6 102.8 -351 51.4 -389.4 0L0 0Z" fill="#FBAE3C"></path></g><g transform="translate(0, 720)"><path d="M0 -389.4C61.8 -369 123.6 -348.6 184 -318.7C244.4 -288.8 303.2 -249.4 337.2 -194.7C371.2 -140 380.3 -70 389.4 0L0 0Z" fill="#FBAE3C"></path></g></svg>